G04 #@! TF.GenerationSoftware,KiCad,Pcbnew,5.1.9-5.1.9*
G04 #@! TF.CreationDate,2021-03-22T11:55:19+01:00*
G04 #@! TF.ProjectId,tomodachi,746f6d6f-6461-4636-9869-2e6b69636164,2.2*
G04 #@! TF.SameCoordinates,Original*
G04 #@! TF.FileFunction,Legend,Top*
G04 #@! TF.FilePolarity,Positive*
%FSLAX46Y46*%
G04 Gerber Fmt 4.6, Leading zero omitted, Abs format (unit mm)*
G04 Created by KiCad (PCBNEW 5.1.9-5.1.9) date 2021-03-22 11:55:19*
%MOMM*%
%LPD*%
G01*
G04 APERTURE LIST*
%ADD10C,0.120000*%
%ADD11C,0.150000*%
G04 APERTURE END LIST*
D10*
X242400000Y-135230000D02*
X240900000Y-135230000D01*
X238400000Y-136480000D02*
X238400000Y-140980000D01*
X240900000Y-142230000D02*
X242400000Y-142230000D01*
X244900000Y-140980000D02*
X244900000Y-136480000D01*
X255093500Y-140935500D02*
X255093500Y-136435500D01*
X251093500Y-142185500D02*
X252593500Y-142185500D01*
X248593500Y-136435500D02*
X248593500Y-140935500D01*
X252593500Y-135185500D02*
X251093500Y-135185500D01*
X240752000Y-121838500D02*
X240752000Y-123678500D01*
X240752000Y-123678500D02*
X244592000Y-123678500D01*
X244592000Y-123678500D02*
X244592000Y-121838500D01*
X244592000Y-121838500D02*
X240752000Y-121838500D01*
X239802000Y-122758500D02*
X240752000Y-122758500D01*
X245542000Y-122758500D02*
X244592000Y-122758500D01*
X244592000Y-112566000D02*
X244592000Y-110726000D01*
X244592000Y-110726000D02*
X240752000Y-110726000D01*
X240752000Y-110726000D02*
X240752000Y-112566000D01*
X240752000Y-112566000D02*
X244592000Y-112566000D01*
X245542000Y-111646000D02*
X244592000Y-111646000D01*
X239802000Y-111646000D02*
X240752000Y-111646000D01*
X254506500Y-121488500D02*
G75*
G03*
X254506500Y-121488500I-2500000J0D01*
G01*
X250461500Y-124048500D02*
X253551500Y-124048500D01*
X252006038Y-118498500D02*
G75*
G02*
X253551330Y-124048500I462J-2990000D01*
G01*
X252006962Y-118498500D02*
G75*
G03*
X250461670Y-124048500I-462J-2990000D01*
G01*
X254443000Y-112916000D02*
G75*
G03*
X254443000Y-112916000I-2500000J0D01*
G01*
X253488000Y-110356000D02*
X250398000Y-110356000D01*
X251943462Y-115906000D02*
G75*
G02*
X250398170Y-110356000I-462J2990000D01*
G01*
X251942538Y-115906000D02*
G75*
G03*
X253487830Y-110356000I462J2990000D01*
G01*
X206686500Y-135523500D02*
X206686500Y-108123500D01*
X206686500Y-108123500D02*
X233986500Y-108123500D01*
X233986500Y-108123500D02*
X233986500Y-135523500D01*
X233986500Y-135523500D02*
X206686500Y-135523500D01*
X226581500Y-112001500D02*
X226581500Y-135101500D01*
X226581500Y-135101500D02*
X209981500Y-135101500D01*
X209981500Y-135101500D02*
X209981500Y-112001500D01*
X207175500Y-126822500D02*
X207175500Y-117043500D01*
X207175500Y-117043500D02*
X209588500Y-117043500D01*
X209588500Y-117043500D02*
X209588500Y-126822500D01*
X207175500Y-126822500D02*
X209588500Y-126822500D01*
X209981500Y-112001500D02*
X209981500Y-108915500D01*
X226581500Y-112001500D02*
X226606500Y-108661500D01*
X226606500Y-108661500D02*
X209969500Y-108661500D01*
X209969500Y-108661500D02*
X209981500Y-108915500D01*
D11*
X237247461Y-141096990D02*
X237295080Y-140954133D01*
X237295080Y-140716038D01*
X237247461Y-140620800D01*
X237199842Y-140573180D01*
X237104604Y-140525561D01*
X237009366Y-140525561D01*
X236914128Y-140573180D01*
X236866509Y-140620800D01*
X236818890Y-140716038D01*
X236771271Y-140906514D01*
X236723652Y-141001752D01*
X236676033Y-141049371D01*
X236580795Y-141096990D01*
X236485557Y-141096990D01*
X236390319Y-141049371D01*
X236342700Y-141001752D01*
X236295080Y-140906514D01*
X236295080Y-140668419D01*
X236342700Y-140525561D01*
X236771271Y-140096990D02*
X236771271Y-139763657D01*
X237295080Y-139620800D02*
X237295080Y-140096990D01*
X236295080Y-140096990D01*
X236295080Y-139620800D01*
X237295080Y-138716038D02*
X237295080Y-139192228D01*
X236295080Y-139192228D01*
X236771271Y-138382704D02*
X236771271Y-138049371D01*
X237295080Y-137906514D02*
X237295080Y-138382704D01*
X236295080Y-138382704D01*
X236295080Y-137906514D01*
X237199842Y-136906514D02*
X237247461Y-136954133D01*
X237295080Y-137096990D01*
X237295080Y-137192228D01*
X237247461Y-137335085D01*
X237152223Y-137430323D01*
X237056985Y-137477942D01*
X236866509Y-137525561D01*
X236723652Y-137525561D01*
X236533176Y-137477942D01*
X236437938Y-137430323D01*
X236342700Y-137335085D01*
X236295080Y-137192228D01*
X236295080Y-137096990D01*
X236342700Y-136954133D01*
X236390319Y-136906514D01*
X236295080Y-136620800D02*
X236295080Y-136049371D01*
X237295080Y-136335085D02*
X236295080Y-136335085D01*
X257140100Y-139391915D02*
X256663910Y-139725248D01*
X257140100Y-139963343D02*
X256140100Y-139963343D01*
X256140100Y-139582391D01*
X256187720Y-139487153D01*
X256235339Y-139439534D01*
X256330577Y-139391915D01*
X256473434Y-139391915D01*
X256568672Y-139439534D01*
X256616291Y-139487153D01*
X256663910Y-139582391D01*
X256663910Y-139963343D01*
X256140100Y-138963343D02*
X256949624Y-138963343D01*
X257044862Y-138915724D01*
X257092481Y-138868105D01*
X257140100Y-138772867D01*
X257140100Y-138582391D01*
X257092481Y-138487153D01*
X257044862Y-138439534D01*
X256949624Y-138391915D01*
X256140100Y-138391915D01*
X257140100Y-137915724D02*
X256140100Y-137915724D01*
X257140100Y-137344296D01*
X256140100Y-137344296D01*
X242505333Y-121290880D02*
X242172000Y-120814690D01*
X241933904Y-121290880D02*
X241933904Y-120290880D01*
X242314857Y-120290880D01*
X242410095Y-120338500D01*
X242457714Y-120386119D01*
X242505333Y-120481357D01*
X242505333Y-120624214D01*
X242457714Y-120719452D01*
X242410095Y-120767071D01*
X242314857Y-120814690D01*
X241933904Y-120814690D01*
X242886285Y-120386119D02*
X242933904Y-120338500D01*
X243029142Y-120290880D01*
X243267238Y-120290880D01*
X243362476Y-120338500D01*
X243410095Y-120386119D01*
X243457714Y-120481357D01*
X243457714Y-120576595D01*
X243410095Y-120719452D01*
X242838666Y-121290880D01*
X243457714Y-121290880D01*
X241414285Y-124252380D02*
X242033333Y-124252380D01*
X241700000Y-124633333D01*
X241842857Y-124633333D01*
X241938095Y-124680952D01*
X241985714Y-124728571D01*
X242033333Y-124823809D01*
X242033333Y-125061904D01*
X241985714Y-125157142D01*
X241938095Y-125204761D01*
X241842857Y-125252380D01*
X241557142Y-125252380D01*
X241461904Y-125204761D01*
X241414285Y-125157142D01*
X242366666Y-124252380D02*
X242985714Y-124252380D01*
X242652380Y-124633333D01*
X242795238Y-124633333D01*
X242890476Y-124680952D01*
X242938095Y-124728571D01*
X242985714Y-124823809D01*
X242985714Y-125061904D01*
X242938095Y-125157142D01*
X242890476Y-125204761D01*
X242795238Y-125252380D01*
X242509523Y-125252380D01*
X242414285Y-125204761D01*
X242366666Y-125157142D01*
X243604761Y-124252380D02*
X243700000Y-124252380D01*
X243795238Y-124300000D01*
X243842857Y-124347619D01*
X243890476Y-124442857D01*
X243938095Y-124633333D01*
X243938095Y-124871428D01*
X243890476Y-125061904D01*
X243842857Y-125157142D01*
X243795238Y-125204761D01*
X243700000Y-125252380D01*
X243604761Y-125252380D01*
X243509523Y-125204761D01*
X243461904Y-125157142D01*
X243414285Y-125061904D01*
X243366666Y-124871428D01*
X243366666Y-124633333D01*
X243414285Y-124442857D01*
X243461904Y-124347619D01*
X243509523Y-124300000D01*
X243604761Y-124252380D01*
X242505333Y-110066380D02*
X242172000Y-109590190D01*
X241933904Y-110066380D02*
X241933904Y-109066380D01*
X242314857Y-109066380D01*
X242410095Y-109114000D01*
X242457714Y-109161619D01*
X242505333Y-109256857D01*
X242505333Y-109399714D01*
X242457714Y-109494952D01*
X242410095Y-109542571D01*
X242314857Y-109590190D01*
X241933904Y-109590190D01*
X243457714Y-110066380D02*
X242886285Y-110066380D01*
X243172000Y-110066380D02*
X243172000Y-109066380D01*
X243076761Y-109209238D01*
X242981523Y-109304476D01*
X242886285Y-109352095D01*
X241386285Y-113130380D02*
X242005333Y-113130380D01*
X241672000Y-113511333D01*
X241814857Y-113511333D01*
X241910095Y-113558952D01*
X241957714Y-113606571D01*
X242005333Y-113701809D01*
X242005333Y-113939904D01*
X241957714Y-114035142D01*
X241910095Y-114082761D01*
X241814857Y-114130380D01*
X241529142Y-114130380D01*
X241433904Y-114082761D01*
X241386285Y-114035142D01*
X242338666Y-113130380D02*
X242957714Y-113130380D01*
X242624380Y-113511333D01*
X242767238Y-113511333D01*
X242862476Y-113558952D01*
X242910095Y-113606571D01*
X242957714Y-113701809D01*
X242957714Y-113939904D01*
X242910095Y-114035142D01*
X242862476Y-114082761D01*
X242767238Y-114130380D01*
X242481523Y-114130380D01*
X242386285Y-114082761D01*
X242338666Y-114035142D01*
X243576761Y-113130380D02*
X243672000Y-113130380D01*
X243767238Y-113178000D01*
X243814857Y-113225619D01*
X243862476Y-113320857D01*
X243910095Y-113511333D01*
X243910095Y-113749428D01*
X243862476Y-113939904D01*
X243814857Y-114035142D01*
X243767238Y-114082761D01*
X243672000Y-114130380D01*
X243576761Y-114130380D01*
X243481523Y-114082761D01*
X243433904Y-114035142D01*
X243386285Y-113939904D01*
X243338666Y-113749428D01*
X243338666Y-113511333D01*
X243386285Y-113320857D01*
X243433904Y-113225619D01*
X243481523Y-113178000D01*
X243576761Y-113130380D01*
X257152380Y-122833333D02*
X256152380Y-122833333D01*
X256152380Y-122452380D01*
X256200000Y-122357142D01*
X256247619Y-122309523D01*
X256342857Y-122261904D01*
X256485714Y-122261904D01*
X256580952Y-122309523D01*
X256628571Y-122357142D01*
X256676190Y-122452380D01*
X256676190Y-122833333D01*
X256152380Y-121928571D02*
X257152380Y-121690476D01*
X256438095Y-121500000D01*
X257152380Y-121309523D01*
X256152380Y-121071428D01*
X257152380Y-120119047D02*
X256676190Y-120452380D01*
X257152380Y-120690476D02*
X256152380Y-120690476D01*
X256152380Y-120309523D01*
X256200000Y-120214285D01*
X256247619Y-120166666D01*
X256342857Y-120119047D01*
X256485714Y-120119047D01*
X256580952Y-120166666D01*
X256628571Y-120214285D01*
X256676190Y-120309523D01*
X256676190Y-120690476D01*
X256866666Y-114019047D02*
X256866666Y-113542857D01*
X257152380Y-114114285D02*
X256152380Y-113780952D01*
X257152380Y-113447619D01*
X257057142Y-112542857D02*
X257104761Y-112590476D01*
X257152380Y-112733333D01*
X257152380Y-112828571D01*
X257104761Y-112971428D01*
X257009523Y-113066666D01*
X256914285Y-113114285D01*
X256723809Y-113161904D01*
X256580952Y-113161904D01*
X256390476Y-113114285D01*
X256295238Y-113066666D01*
X256200000Y-112971428D01*
X256152380Y-112828571D01*
X256152380Y-112733333D01*
X256200000Y-112590476D01*
X256247619Y-112542857D01*
X256152380Y-112257142D02*
X256152380Y-111685714D01*
X257152380Y-111971428D02*
X256152380Y-111971428D01*
X225604761Y-125066666D02*
X225652380Y-124923809D01*
X225652380Y-124685714D01*
X225604761Y-124590476D01*
X225557142Y-124542857D01*
X225461904Y-124495238D01*
X225366666Y-124495238D01*
X225271428Y-124542857D01*
X225223809Y-124590476D01*
X225176190Y-124685714D01*
X225128571Y-124876190D01*
X225080952Y-124971428D01*
X225033333Y-125019047D01*
X224938095Y-125066666D01*
X224842857Y-125066666D01*
X224747619Y-125019047D01*
X224700000Y-124971428D01*
X224652380Y-124876190D01*
X224652380Y-124638095D01*
X224700000Y-124495238D01*
X225604761Y-124114285D02*
X225652380Y-123971428D01*
X225652380Y-123733333D01*
X225604761Y-123638095D01*
X225557142Y-123590476D01*
X225461904Y-123542857D01*
X225366666Y-123542857D01*
X225271428Y-123590476D01*
X225223809Y-123638095D01*
X225176190Y-123733333D01*
X225128571Y-123923809D01*
X225080952Y-124019047D01*
X225033333Y-124066666D01*
X224938095Y-124114285D01*
X224842857Y-124114285D01*
X224747619Y-124066666D01*
X224700000Y-124019047D01*
X224652380Y-123923809D01*
X224652380Y-123685714D01*
X224700000Y-123542857D01*
X225652380Y-123114285D02*
X224652380Y-123114285D01*
X224652380Y-122876190D01*
X224700000Y-122733333D01*
X224795238Y-122638095D01*
X224890476Y-122590476D01*
X225080952Y-122542857D01*
X225223809Y-122542857D01*
X225414285Y-122590476D01*
X225509523Y-122638095D01*
X225604761Y-122733333D01*
X225652380Y-122876190D01*
X225652380Y-123114285D01*
X225652380Y-121590476D02*
X225652380Y-122161904D01*
X225652380Y-121876190D02*
X224652380Y-121876190D01*
X224795238Y-121971428D01*
X224890476Y-122066666D01*
X224938095Y-122161904D01*
X224652380Y-121257142D02*
X224652380Y-120638095D01*
X225033333Y-120971428D01*
X225033333Y-120828571D01*
X225080952Y-120733333D01*
X225128571Y-120685714D01*
X225223809Y-120638095D01*
X225461904Y-120638095D01*
X225557142Y-120685714D01*
X225604761Y-120733333D01*
X225652380Y-120828571D01*
X225652380Y-121114285D01*
X225604761Y-121209523D01*
X225557142Y-121257142D01*
X224652380Y-120019047D02*
X224652380Y-119923809D01*
X224700000Y-119828571D01*
X224747619Y-119780952D01*
X224842857Y-119733333D01*
X225033333Y-119685714D01*
X225271428Y-119685714D01*
X225461904Y-119733333D01*
X225557142Y-119780952D01*
X225604761Y-119828571D01*
X225652380Y-119923809D01*
X225652380Y-120019047D01*
X225604761Y-120114285D01*
X225557142Y-120161904D01*
X225461904Y-120209523D01*
X225271428Y-120257142D01*
X225033333Y-120257142D01*
X224842857Y-120209523D01*
X224747619Y-120161904D01*
X224700000Y-120114285D01*
X224652380Y-120019047D01*
X224652380Y-118828571D02*
X224652380Y-119019047D01*
X224700000Y-119114285D01*
X224747619Y-119161904D01*
X224890476Y-119257142D01*
X225080952Y-119304761D01*
X225461904Y-119304761D01*
X225557142Y-119257142D01*
X225604761Y-119209523D01*
X225652380Y-119114285D01*
X225652380Y-118923809D01*
X225604761Y-118828571D01*
X225557142Y-118780952D01*
X225461904Y-118733333D01*
X225223809Y-118733333D01*
X225128571Y-118780952D01*
X225080952Y-118828571D01*
X225033333Y-118923809D01*
X225033333Y-119114285D01*
X225080952Y-119209523D01*
X225128571Y-119257142D01*
X225223809Y-119304761D01*
M02*
