G04 #@! TF.GenerationSoftware,KiCad,Pcbnew,5.1.9-5.1.9*
G04 #@! TF.CreationDate,2021-03-22T11:55:19+01:00*
G04 #@! TF.ProjectId,tomodachi,746f6d6f-6461-4636-9869-2e6b69636164,2.2*
G04 #@! TF.SameCoordinates,Original*
G04 #@! TF.FileFunction,Legend,Bot*
G04 #@! TF.FilePolarity,Positive*
%FSLAX46Y46*%
G04 Gerber Fmt 4.6, Leading zero omitted, Abs format (unit mm)*
G04 Created by KiCad (PCBNEW 5.1.9-5.1.9) date 2021-03-22 11:55:19*
%MOMM*%
%LPD*%
G01*
G04 APERTURE LIST*
%ADD10C,0.150000*%
%ADD11C,0.120000*%
G04 APERTURE END LIST*
D10*
X215820571Y-105774285D02*
X217034857Y-105774285D01*
X217177714Y-105702857D01*
X217249142Y-105631428D01*
X217320571Y-105488571D01*
X217320571Y-105274285D01*
X217249142Y-105131428D01*
X216749142Y-105774285D02*
X216820571Y-105631428D01*
X216820571Y-105345714D01*
X216749142Y-105202857D01*
X216677714Y-105131428D01*
X216534857Y-105060000D01*
X216106285Y-105060000D01*
X215963428Y-105131428D01*
X215892000Y-105202857D01*
X215820571Y-105345714D01*
X215820571Y-105631428D01*
X215892000Y-105774285D01*
X216820571Y-106488571D02*
X215820571Y-106488571D01*
X215320571Y-106488571D02*
X215392000Y-106417142D01*
X215463428Y-106488571D01*
X215392000Y-106560000D01*
X215320571Y-106488571D01*
X215463428Y-106488571D01*
X215820571Y-106988571D02*
X215820571Y-107560000D01*
X215320571Y-107202857D02*
X216606285Y-107202857D01*
X216749142Y-107274285D01*
X216820571Y-107417142D01*
X216820571Y-107560000D01*
X216820571Y-108060000D02*
X215320571Y-108060000D01*
X216820571Y-108702857D02*
X216034857Y-108702857D01*
X215892000Y-108631428D01*
X215820571Y-108488571D01*
X215820571Y-108274285D01*
X215892000Y-108131428D01*
X215963428Y-108060000D01*
X215820571Y-110060000D02*
X216820571Y-110060000D01*
X215820571Y-109417142D02*
X216606285Y-109417142D01*
X216749142Y-109488571D01*
X216820571Y-109631428D01*
X216820571Y-109845714D01*
X216749142Y-109988571D01*
X216677714Y-110060000D01*
X216820571Y-110774285D02*
X215320571Y-110774285D01*
X215892000Y-110774285D02*
X215820571Y-110917142D01*
X215820571Y-111202857D01*
X215892000Y-111345714D01*
X215963428Y-111417142D01*
X216106285Y-111488571D01*
X216534857Y-111488571D01*
X216677714Y-111417142D01*
X216749142Y-111345714D01*
X216820571Y-111202857D01*
X216820571Y-110917142D01*
X216749142Y-110774285D01*
X216677714Y-112131428D02*
X216749142Y-112202857D01*
X216820571Y-112131428D01*
X216749142Y-112060000D01*
X216677714Y-112131428D01*
X216820571Y-112131428D01*
X216749142Y-113488571D02*
X216820571Y-113345714D01*
X216820571Y-113060000D01*
X216749142Y-112917142D01*
X216677714Y-112845714D01*
X216534857Y-112774285D01*
X216106285Y-112774285D01*
X215963428Y-112845714D01*
X215892000Y-112917142D01*
X215820571Y-113060000D01*
X215820571Y-113345714D01*
X215892000Y-113488571D01*
X216820571Y-114345714D02*
X216749142Y-114202857D01*
X216677714Y-114131428D01*
X216534857Y-114060000D01*
X216106285Y-114060000D01*
X215963428Y-114131428D01*
X215892000Y-114202857D01*
X215820571Y-114345714D01*
X215820571Y-114560000D01*
X215892000Y-114702857D01*
X215963428Y-114774285D01*
X216106285Y-114845714D01*
X216534857Y-114845714D01*
X216677714Y-114774285D01*
X216749142Y-114702857D01*
X216820571Y-114560000D01*
X216820571Y-114345714D01*
X216820571Y-115488571D02*
X215820571Y-115488571D01*
X215963428Y-115488571D02*
X215892000Y-115560000D01*
X215820571Y-115702857D01*
X215820571Y-115917142D01*
X215892000Y-116060000D01*
X216034857Y-116131428D01*
X216820571Y-116131428D01*
X216034857Y-116131428D02*
X215892000Y-116202857D01*
X215820571Y-116345714D01*
X215820571Y-116560000D01*
X215892000Y-116702857D01*
X216034857Y-116774285D01*
X216820571Y-116774285D01*
X215249142Y-118560000D02*
X217177714Y-117274285D01*
X216820571Y-119702857D02*
X215320571Y-119702857D01*
X216749142Y-119702857D02*
X216820571Y-119560000D01*
X216820571Y-119274285D01*
X216749142Y-119131428D01*
X216677714Y-119060000D01*
X216534857Y-118988571D01*
X216106285Y-118988571D01*
X215963428Y-119060000D01*
X215892000Y-119131428D01*
X215820571Y-119274285D01*
X215820571Y-119560000D01*
X215892000Y-119702857D01*
X216820571Y-120417142D02*
X215820571Y-120417142D01*
X215963428Y-120417142D02*
X215892000Y-120488571D01*
X215820571Y-120631428D01*
X215820571Y-120845714D01*
X215892000Y-120988571D01*
X216034857Y-121060000D01*
X216820571Y-121060000D01*
X216034857Y-121060000D02*
X215892000Y-121131428D01*
X215820571Y-121274285D01*
X215820571Y-121488571D01*
X215892000Y-121631428D01*
X216034857Y-121702857D01*
X216820571Y-121702857D01*
X215820571Y-122417142D02*
X217320571Y-122417142D01*
X215892000Y-122417142D02*
X215820571Y-122560000D01*
X215820571Y-122845714D01*
X215892000Y-122988571D01*
X215963428Y-123060000D01*
X216106285Y-123131428D01*
X216534857Y-123131428D01*
X216677714Y-123060000D01*
X216749142Y-122988571D01*
X216820571Y-122845714D01*
X216820571Y-122560000D01*
X216749142Y-122417142D01*
X216820571Y-123988571D02*
X216749142Y-123845714D01*
X216677714Y-123774285D01*
X216534857Y-123702857D01*
X216106285Y-123702857D01*
X215963428Y-123774285D01*
X215892000Y-123845714D01*
X215820571Y-123988571D01*
X215820571Y-124202857D01*
X215892000Y-124345714D01*
X215963428Y-124417142D01*
X216106285Y-124488571D01*
X216534857Y-124488571D01*
X216677714Y-124417142D01*
X216749142Y-124345714D01*
X216820571Y-124202857D01*
X216820571Y-123988571D01*
X215820571Y-125131428D02*
X217320571Y-125131428D01*
X215892000Y-125131428D02*
X215820571Y-125274285D01*
X215820571Y-125560000D01*
X215892000Y-125702857D01*
X215963428Y-125774285D01*
X216106285Y-125845714D01*
X216534857Y-125845714D01*
X216677714Y-125774285D01*
X216749142Y-125702857D01*
X216820571Y-125560000D01*
X216820571Y-125274285D01*
X216749142Y-125131428D01*
X215249142Y-127560000D02*
X217177714Y-126274285D01*
X215820571Y-127845714D02*
X215820571Y-128417142D01*
X215320571Y-128060000D02*
X216606285Y-128060000D01*
X216749142Y-128131428D01*
X216820571Y-128274285D01*
X216820571Y-128417142D01*
X216820571Y-129131428D02*
X216749142Y-128988571D01*
X216677714Y-128917142D01*
X216534857Y-128845714D01*
X216106285Y-128845714D01*
X215963428Y-128917142D01*
X215892000Y-128988571D01*
X215820571Y-129131428D01*
X215820571Y-129345714D01*
X215892000Y-129488571D01*
X215963428Y-129560000D01*
X216106285Y-129631428D01*
X216534857Y-129631428D01*
X216677714Y-129560000D01*
X216749142Y-129488571D01*
X216820571Y-129345714D01*
X216820571Y-129131428D01*
X216820571Y-130274285D02*
X215820571Y-130274285D01*
X215963428Y-130274285D02*
X215892000Y-130345714D01*
X215820571Y-130488571D01*
X215820571Y-130702857D01*
X215892000Y-130845714D01*
X216034857Y-130917142D01*
X216820571Y-130917142D01*
X216034857Y-130917142D02*
X215892000Y-130988571D01*
X215820571Y-131131428D01*
X215820571Y-131345714D01*
X215892000Y-131488571D01*
X216034857Y-131560000D01*
X216820571Y-131560000D01*
X216820571Y-132488571D02*
X216749142Y-132345714D01*
X216677714Y-132274285D01*
X216534857Y-132202857D01*
X216106285Y-132202857D01*
X215963428Y-132274285D01*
X215892000Y-132345714D01*
X215820571Y-132488571D01*
X215820571Y-132702857D01*
X215892000Y-132845714D01*
X215963428Y-132917142D01*
X216106285Y-132988571D01*
X216534857Y-132988571D01*
X216677714Y-132917142D01*
X216749142Y-132845714D01*
X216820571Y-132702857D01*
X216820571Y-132488571D01*
X216820571Y-134274285D02*
X215320571Y-134274285D01*
X216749142Y-134274285D02*
X216820571Y-134131428D01*
X216820571Y-133845714D01*
X216749142Y-133702857D01*
X216677714Y-133631428D01*
X216534857Y-133560000D01*
X216106285Y-133560000D01*
X215963428Y-133631428D01*
X215892000Y-133702857D01*
X215820571Y-133845714D01*
X215820571Y-134131428D01*
X215892000Y-134274285D01*
X216820571Y-135631428D02*
X216034857Y-135631428D01*
X215892000Y-135560000D01*
X215820571Y-135417142D01*
X215820571Y-135131428D01*
X215892000Y-134988571D01*
X216749142Y-135631428D02*
X216820571Y-135488571D01*
X216820571Y-135131428D01*
X216749142Y-134988571D01*
X216606285Y-134917142D01*
X216463428Y-134917142D01*
X216320571Y-134988571D01*
X216249142Y-135131428D01*
X216249142Y-135488571D01*
X216177714Y-135631428D01*
X216749142Y-136988571D02*
X216820571Y-136845714D01*
X216820571Y-136560000D01*
X216749142Y-136417142D01*
X216677714Y-136345714D01*
X216534857Y-136274285D01*
X216106285Y-136274285D01*
X215963428Y-136345714D01*
X215892000Y-136417142D01*
X215820571Y-136560000D01*
X215820571Y-136845714D01*
X215892000Y-136988571D01*
X216820571Y-137631428D02*
X215320571Y-137631428D01*
X216820571Y-138274285D02*
X216034857Y-138274285D01*
X215892000Y-138202857D01*
X215820571Y-138060000D01*
X215820571Y-137845714D01*
X215892000Y-137702857D01*
X215963428Y-137631428D01*
X216820571Y-138988571D02*
X215820571Y-138988571D01*
X215320571Y-138988571D02*
X215392000Y-138917142D01*
X215463428Y-138988571D01*
X215392000Y-139060000D01*
X215320571Y-138988571D01*
X215463428Y-138988571D01*
X221620571Y-112952857D02*
X220906285Y-112452857D01*
X221620571Y-112095714D02*
X220120571Y-112095714D01*
X220120571Y-112667142D01*
X220192000Y-112810000D01*
X220263428Y-112881428D01*
X220406285Y-112952857D01*
X220620571Y-112952857D01*
X220763428Y-112881428D01*
X220834857Y-112810000D01*
X220906285Y-112667142D01*
X220906285Y-112095714D01*
X221549142Y-114167142D02*
X221620571Y-114024285D01*
X221620571Y-113738571D01*
X221549142Y-113595714D01*
X221406285Y-113524285D01*
X220834857Y-113524285D01*
X220692000Y-113595714D01*
X220620571Y-113738571D01*
X220620571Y-114024285D01*
X220692000Y-114167142D01*
X220834857Y-114238571D01*
X220977714Y-114238571D01*
X221120571Y-113524285D01*
X220620571Y-114738571D02*
X221620571Y-115095714D01*
X220620571Y-115452857D01*
X221477714Y-116024285D02*
X221549142Y-116095714D01*
X221620571Y-116024285D01*
X221549142Y-115952857D01*
X221477714Y-116024285D01*
X221620571Y-116024285D01*
X220692000Y-116024285D02*
X220763428Y-116095714D01*
X220834857Y-116024285D01*
X220763428Y-115952857D01*
X220692000Y-116024285D01*
X220834857Y-116024285D01*
X220263428Y-117810000D02*
X220192000Y-117881428D01*
X220120571Y-118024285D01*
X220120571Y-118381428D01*
X220192000Y-118524285D01*
X220263428Y-118595714D01*
X220406285Y-118667142D01*
X220549142Y-118667142D01*
X220763428Y-118595714D01*
X221620571Y-117738571D01*
X221620571Y-118667142D01*
X221477714Y-119310000D02*
X221549142Y-119381428D01*
X221620571Y-119310000D01*
X221549142Y-119238571D01*
X221477714Y-119310000D01*
X221620571Y-119310000D01*
X220263428Y-119952857D02*
X220192000Y-120024285D01*
X220120571Y-120167142D01*
X220120571Y-120524285D01*
X220192000Y-120667142D01*
X220263428Y-120738571D01*
X220406285Y-120810000D01*
X220549142Y-120810000D01*
X220763428Y-120738571D01*
X221620571Y-119881428D01*
X221620571Y-120810000D01*
X220120571Y-122881428D02*
X220120571Y-123024285D01*
X220192000Y-123167142D01*
X220263428Y-123238571D01*
X220406285Y-123310000D01*
X220692000Y-123381428D01*
X221049142Y-123381428D01*
X221334857Y-123310000D01*
X221477714Y-123238571D01*
X221549142Y-123167142D01*
X221620571Y-123024285D01*
X221620571Y-122881428D01*
X221549142Y-122738571D01*
X221477714Y-122667142D01*
X221334857Y-122595714D01*
X221049142Y-122524285D01*
X220692000Y-122524285D01*
X220406285Y-122595714D01*
X220263428Y-122667142D01*
X220192000Y-122738571D01*
X220120571Y-122881428D01*
X220120571Y-123881428D02*
X220120571Y-124810000D01*
X220692000Y-124310000D01*
X220692000Y-124524285D01*
X220763428Y-124667142D01*
X220834857Y-124738571D01*
X220977714Y-124810000D01*
X221334857Y-124810000D01*
X221477714Y-124738571D01*
X221549142Y-124667142D01*
X221620571Y-124524285D01*
X221620571Y-124095714D01*
X221549142Y-123952857D01*
X221477714Y-123881428D01*
X220049142Y-126524285D02*
X221977714Y-125238571D01*
X220263428Y-126952857D02*
X220192000Y-127024285D01*
X220120571Y-127167142D01*
X220120571Y-127524285D01*
X220192000Y-127667142D01*
X220263428Y-127738571D01*
X220406285Y-127810000D01*
X220549142Y-127810000D01*
X220763428Y-127738571D01*
X221620571Y-126881428D01*
X221620571Y-127810000D01*
X220120571Y-128738571D02*
X220120571Y-128881428D01*
X220192000Y-129024285D01*
X220263428Y-129095714D01*
X220406285Y-129167142D01*
X220692000Y-129238571D01*
X221049142Y-129238571D01*
X221334857Y-129167142D01*
X221477714Y-129095714D01*
X221549142Y-129024285D01*
X221620571Y-128881428D01*
X221620571Y-128738571D01*
X221549142Y-128595714D01*
X221477714Y-128524285D01*
X221334857Y-128452857D01*
X221049142Y-128381428D01*
X220692000Y-128381428D01*
X220406285Y-128452857D01*
X220263428Y-128524285D01*
X220192000Y-128595714D01*
X220120571Y-128738571D01*
X220263428Y-129810000D02*
X220192000Y-129881428D01*
X220120571Y-130024285D01*
X220120571Y-130381428D01*
X220192000Y-130524285D01*
X220263428Y-130595714D01*
X220406285Y-130667142D01*
X220549142Y-130667142D01*
X220763428Y-130595714D01*
X221620571Y-129738571D01*
X221620571Y-130667142D01*
X221620571Y-132095714D02*
X221620571Y-131238571D01*
X221620571Y-131667142D02*
X220120571Y-131667142D01*
X220334857Y-131524285D01*
X220477714Y-131381428D01*
X220549142Y-131238571D01*
D11*
X207040000Y-98770000D02*
X207040000Y-100100000D01*
X207040000Y-100100000D02*
X208370000Y-100100000D01*
X207040000Y-97500000D02*
X209640000Y-97500000D01*
X209640000Y-97500000D02*
X209640000Y-100100000D01*
X209640000Y-100100000D02*
X257960000Y-100100000D01*
X257960000Y-94900000D02*
X257960000Y-100100000D01*
X207040000Y-94900000D02*
X257960000Y-94900000D01*
X207040000Y-94900000D02*
X207040000Y-97500000D01*
D10*
X207596095Y-101430380D02*
X207596095Y-100430380D01*
X207215142Y-100430380D01*
X207119904Y-100478000D01*
X207072285Y-100525619D01*
X207024666Y-100620857D01*
X207024666Y-100763714D01*
X207072285Y-100858952D01*
X207119904Y-100906571D01*
X207215142Y-100954190D01*
X207596095Y-100954190D01*
X206072285Y-101430380D02*
X206643714Y-101430380D01*
X206358000Y-101430380D02*
X206358000Y-100430380D01*
X206453238Y-100573238D01*
X206548476Y-100668476D01*
X206643714Y-100716095D01*
M02*
