M48
; DRILL file {KiCad 5.1.9-5.1.9} date Mon Mar 22 11:55:14 2021
; FORMAT={-:-/ absolute / inch / decimal}
; #@! TF.CreationDate,2021-03-22T11:55:14+01:00
; #@! TF.GenerationSoftware,Kicad,Pcbnew,5.1.9-5.1.9
FMAT,2
INCH
T1C0.0276
T2C0.0354
T3C0.0394
T4C0.0433
T5C0.0984
%
G90
G05
T1
X9.404Y-4.3955
X9.404Y-4.833
X9.704Y-4.3955
X9.704Y-4.833
T2
X9.919Y-4.3955
X9.919Y-4.4955
X9.9215Y-4.733
X9.9215Y-4.833
T3
X8.2035Y-3.7886
X8.2035Y-3.8886
X8.2042Y-4.6505
X8.2042Y-4.7505
X8.2042Y-4.8505
X8.2042Y-4.9505
X8.3035Y-3.7886
X8.3035Y-3.8886
X8.4035Y-3.7886
X8.4035Y-3.8886
X8.5035Y-3.7886
X8.5035Y-3.8886
X8.6035Y-3.7886
X8.6035Y-3.8886
X8.7035Y-3.7886
X8.7035Y-3.8886
X8.8035Y-3.7886
X8.8035Y-3.8886
X8.9035Y-3.7886
X8.9035Y-3.8886
X9.0035Y-3.7886
X9.0035Y-3.8886
X9.1035Y-3.7886
X9.1035Y-3.8886
X9.2035Y-3.7886
X9.2035Y-3.8886
X9.3035Y-3.7886
X9.3035Y-3.8886
X9.4035Y-3.7886
X9.4035Y-3.8886
X9.5035Y-3.7886
X9.5035Y-3.8886
X9.6035Y-3.7886
X9.6035Y-3.8886
X9.7035Y-3.7886
X9.7035Y-3.8886
X9.8035Y-3.7886
X9.8035Y-3.8886
X9.9035Y-3.7886
X9.9035Y-3.8886
X10.0035Y-3.7886
X10.0035Y-3.8886
X10.1035Y-3.7886
X10.1035Y-3.8886
T4
X9.4252Y-5.3339
X9.4252Y-5.5898
X9.6024Y-5.3339
X9.6024Y-5.5898
X9.8265Y-5.3321
X9.8265Y-5.588
X10.0037Y-5.3321
X10.0037Y-5.588
T5
X8.0118Y-5.7677
X10.2953Y-5.7677
T0
M30
